<?xml version="1.0" encoding="utf-8"?>
<!-- Generator: Adobe Illustrator 16.2.1, SVG Export Plug-In . SVG Version: 6.00 Build 0)  -->
<!DOCTYPE svg PUBLIC "-//W3C//DTD SVG 1.1//EN" "http://www.w3.org/Graphics/SVG/1.1/DTD/svg11.dtd">
<svg version="1.1" id="レイヤー_1" xmlns="http://www.w3.org/2000/svg" xmlns:xlink="http://www.w3.org/1999/xlink" x="0px"
	 y="0px" width="130.494px" height="130.494px" viewBox="0 0 130.494 130.494" enable-background="new 0 0 130.494 130.494"
	 xml:space="preserve">
<path d="M76.496,92.746c-1.279,0-2.56-0.488-3.535-1.465L50.462,68.783c-1.953-1.952-1.953-5.118,0-7.071l22.499-22.499
	c1.951-1.952,5.119-1.952,7.07,0c1.953,1.953,1.953,5.119,0,7.071L61.069,65.248l18.962,18.963c1.953,1.952,1.953,5.118,0,7.07
	C79.056,92.258,77.775,92.746,76.496,92.746z"/>
<path d="M65.248,126.94c-34.018,0-61.693-27.676-61.693-61.693S31.23,3.554,65.248,3.554s61.692,27.675,61.692,61.693
	S99.266,126.94,65.248,126.94z M65.248,13.554c-28.503,0-51.693,23.189-51.693,51.693c0,28.504,23.189,51.693,51.693,51.693
	c28.503,0,51.692-23.189,51.692-51.693C116.94,36.744,93.751,13.554,65.248,13.554z"/>
</svg>
